# xmcd CD database file
#
# Track frame offsets:
#	150
#	16962
#	36372
#	50724
#
# Disc length: 921 seconds
#
# Revision: 1
# Processed by: cddbd v1.5.2PL0 Copyright (c) Steve Scherf et al.
# Submitted via: CDex 2.22
#
DISCID=2f039704
DTITLE=Garth Brooks - The Dance/Friends In Low Place
DYEAR=1900
DGENRE=Country
TTITLE0=The Dance
TTITLE1=Friends In Low Places
TTITLE2=Victim of the Game
TTITLE3=Kickin' and Screamin'
EXTD=
EXTT0=
EXTT1=
EXTT2=
EXTT3=
PLAYORDER=
